# xmcd
#
# Track frame offsets: 
#        150
#        16530
#        30455
#        46284
#        64299
#        93286
#        110605
#        128289
#        142500
#        159755
#        177627
#
# Disc length: 2613 seconds
#
# Revision: 2
# Processed by: cddbd v1.5.1PL0 Copyright (c) Steve Scherf et al.
# Submitted via: ExactAudioCopy v0.90b4
#
DISCID=780a330b
DTITLE=Rascal Flatts - Rascal Flatts
DYEAR=1900
DGENRE=Country
TTITLE0=Prayin' For Daylight
TTITLE1=This Everyday Love
TTITLE2=While You Loved Me
TTITLE3=Some Say
TTITLE4=See Me Through
TTITLE5=One Good Love
TTITLE6=It's Not Just Me
TTITLE7=Waiting All My Life
TTITLE8=From Time To Time
TTITLE9=Long Slow Beautiful Dance
TTITLE10=I'm Movin' On
EXTD=Lyric Street Recordings
EXTT0=92 BPM-2S, Shuffle, Double 2
EXTT1=96 BPM-2S, Double 2, Shuffle
EXTT2=72 BPM-Slow
EXTT3=119 BPM-Cha Cha, Double 2, 2S
EXTT4=105 BPM-Cha Cha, Double 2
EXTT5=122 BPM-Double 2, Polka, Cha Cha
EXTT6=70 BPM-Slow
EXTT7=102 BPM-Cha Cha, Double 2
EXTT8=120 BPM-Cha Cha, Double 2, 2S
EXTT9=91 BPM-Waltz
EXTT10=130 BPM
PLAYORDER=
